<?xml version="1.0" standalone="no"?>
<!DOCTYPE svg PUBLIC "-//W3C//DTD SVG 20010904//EN"
 "http://www.w3.org/TR/2001/REC-SVG-20010904/DTD/svg10.dtd">
<svg version="1.0" xmlns="http://www.w3.org/2000/svg"
 width="1217.000000pt" height="827.000000pt" viewBox="0 0 1217.000000 827.000000"
 preserveAspectRatio="xMidYMid meet">
<metadata>
Created by potrace 1.16, written by Peter Selinger 2001-2019
</metadata>
<g transform="translate(0.000000,827.000000) scale(0.100000,-0.100000)"
fill="#ffffff" stroke="none">
<path d="M1680 8253 c-245 -28 -527 -123 -749 -252 -172 -101 -386 -287 -513
-447 -184 -232 -318 -519 -377 -811 -12 -56 -26 -171 -31 -255 -7 -100 -10
-1042 -8 -2733 l3 -2580 838 -3 837 -2 0 2482 c0 1654 4 2505 10 2548 29 179
155 330 335 400 57 22 76 24 333 28 180 3 296 0 340 -8 149 -25 290 -126 359
-256 68 -128 63 82 63 -2686 l0 -2508 840 0 840 0 0 2483 c0 2740 -5 2533 63
2661 67 127 208 229 351 255 77 14 555 14 632 0 143 -26 284 -128 351 -255 55
-104 63 -153 63 -401 0 -123 2 -223 5 -223 3 0 44 31 90 70 413 337 953 581
1489 674 49 9 91 17 93 20 7 7 -17 206 -38 309 -138 685 -684 1261 -1364 1437
-212 55 -280 60 -779 60 -510 0 -585 -6 -801 -65 -219 -60 -435 -165 -625
-305 -47 -34 -147 -125 -223 -202 l-138 -139 -41 48 c-273 321 -657 546 -1084
634 -104 22 -131 23 -619 25 -280 1 -526 0 -545 -3z"/>
<path d="M9260 7162 l0 -559 497 -6 c273 -4 674 -7 890 -7 436 0 466 -3 518
-56 47 -47 58 -106 53 -289 -4 -169 -12 -194 -75 -242 l-36 -28 -371 -6 c-328
-5 -383 -8 -472 -27 -146 -31 -244 -65 -379 -131 -159 -78 -277 -163 -410
-296 -268 -267 -417 -594 -445 -975 -5 -69 -10 -401 -10 -737 l0 -613 1505 0
1505 0 0 485 0 485 -979 0 -978 0 -7 313 c-7 272 -5 318 8 356 23 64 59 106
113 132 l48 24 540 6 c511 5 544 6 617 27 370 102 647 375 749 737 21 77 23
100 27 550 4 503 1 554 -45 700 -49 155 -122 274 -247 403 -134 138 -285 227
-476 280 l-95 27 -1022 3 -1023 3 0 -559z"/>
<path d="M8185 6244 c-16 -2 -79 -9 -140 -15 -139 -14 -347 -57 -506 -104
-1077 -318 -1908 -1226 -2143 -2344 -53 -248 -61 -336 -61 -656 0 -321 8 -408
61 -659 99 -469 315 -929 614 -1306 98 -124 369 -398 490 -494 203 -162 498
-337 725 -432 225 -93 493 -168 740 -206 120 -19 182 -22 430 -22 248 0 310 3
425 21 197 31 356 69 522 124 452 149 852 395 1194 734 138 137 256 273 252
291 -2 7 -210 252 -462 544 -253 293 -468 542 -477 554 l-18 21 -18 -25 c-206
-289 -635 -563 -1038 -663 -180 -45 -241 -52 -445 -51 -161 0 -212 4 -292 22
-138 30 -237 65 -363 128 -419 208 -715 602 -812 1079 -28 139 -25 453 6 595
117 542 489 967 993 1134 183 61 249 71 478 71 190 -1 214 -3 320 -29 63 -15
124 -30 136 -33 20 -4 21 1 28 79 20 244 114 528 243 738 145 233 376 466 575
578 27 15 47 31 45 36 -4 12 -156 77 -296 127 -226 79 -492 136 -741 159 -106
9 -395 12 -465 4z"/>
</g>
</svg>
