<?xml version="1.0" standalone="no"?>
<!DOCTYPE svg PUBLIC "-//W3C//DTD SVG 20010904//EN"
 "http://www.w3.org/TR/2001/REC-SVG-20010904/DTD/svg10.dtd">
<svg version="1.0" xmlns="http://www.w3.org/2000/svg"
 width="1576.000000pt" height="1574.000000pt" viewBox="0 0 1576.000000 1574.000000"
 preserveAspectRatio="xMidYMid meet">
<metadata>
Created by potrace 1.16, written by Peter Selinger 2001-2019
</metadata>
<g transform="translate(0.000000,1574.000000) scale(0.100000,-0.100000)"
fill="#333" stroke="red">
<path d="M0 7870 l0 -7870 7880 0 7880 0 0 7870 0 7870 -7880 0 -7880 0 0
-7870z m4523 4105 c265 -35 524 -126 737 -258 166 -104 336 -247 438 -370 l64
-76 57 67 c223 258 509 449 834 557 246 82 297 88 822 93 296 2 498 0 565 -7
656 -69 1230 -478 1510 -1076 98 -208 149 -406 174 -671 l5 -52 -97 -17 c-543
-97 -1056 -329 -1482 -670 l-95 -76 -6 248 c-3 136 -10 262 -16 279 -61 177
-201 308 -374 349 -49 11 -129 15 -339 15 -307 0 -360 -7 -464 -63 -117 -62
-217 -189 -252 -322 -11 -41 -14 -491 -14 -2537 l0 -2488 -840 0 -840 0 0
2513 c0 2283 -1 2518 -16 2568 -55 185 -195 321 -375 364 -79 18 -557 21 -641
4 -80 -17 -171 -64 -233 -121 -70 -64 -108 -119 -143 -205 l-27 -68 -3 -2527
-2 -2528 -835 0 -835 0 0 2680 c0 2366 2 2692 16 2791 83 600 450 1120 994
1407 185 98 404 168 614 196 151 21 945 21 1099 1z m8652 -553 c208 -58 331
-128 476 -272 160 -158 247 -315 290 -525 17 -80 19 -140 19 -536 0 -479 -4
-529 -54 -675 -109 -322 -378 -571 -716 -662 l-95 -26 -540 -5 -540 -6 -47
-28 c-53 -31 -81 -66 -104 -129 -13 -37 -15 -86 -8 -355 l7 -313 978 0 979 0
0 -485 0 -485 -1506 0 -1506 0 5 708 c4 601 7 720 21 792 112 577 492 1019
1035 1200 196 66 251 72 661 79 260 4 371 10 386 18 36 20 73 71 85 115 6 25
9 105 7 202 -3 147 -5 164 -26 198 -13 20 -40 47 -60 60 l-37 23 -670 6 c-368
4 -781 7 -917 8 l-248 1 0 560 0 561 1023 -3 1022 -3 80 -23z m-2616 -1467
c239 -30 499 -95 711 -178 125 -49 210 -86 210 -91 0 -2 -44 -34 -99 -70 -123
-82 -254 -197 -349 -307 -237 -273 -396 -642 -419 -976 -7 -91 -7 -91 -70 -69
-22 8 -76 21 -119 30 -454 93 -916 -29 -1274 -336 -258 -221 -442 -552 -502
-903 -26 -155 -21 -428 10 -570 133 -594 564 -1035 1146 -1173 102 -24 128
-26 326 -26 198 0 225 2 343 27 450 98 826 321 1112 659 l40 47 475 -550 c261
-303 477 -555 479 -561 7 -21 -200 -250 -344 -381 -1044 -944 -2554 -1062
-3722 -291 -178 118 -306 224 -483 403 -493 496 -787 1097 -887 1811 -22 157
-25 611 -5 770 74 599 302 1144 672 1610 95 119 338 366 450 457 511 412 1092
641 1740 687 108 8 437 -4 559 -19z"/>
</g>
</svg>
